<?xml version="1.0" standalone="no"?>
<!DOCTYPE svg PUBLIC "-//W3C//DTD SVG 20010904//EN"
 "http://www.w3.org/TR/2001/REC-SVG-20010904/DTD/svg10.dtd">
<svg version="1.0" xmlns="http://www.w3.org/2000/svg"
 width="64.000000pt" height="64.000000pt" viewBox="0 0 64.000000 64.000000"
 preserveAspectRatio="xMidYMid meet">

<g transform="translate(0.000000,64.000000) scale(0.100000,-0.100000)"
fill="#000000" stroke="none">
<path d="M215 558 c-136 -48 -183 -213 -92 -323 61 -75 156 -94 243 -50 27 14
50 25 52 25 1 0 0 -10 -3 -23 -5 -17 5 -33 44 -71 l51 -50 25 24 c14 13 25 28
25 35 0 6 -22 32 -48 58 -34 33 -54 46 -65 41 -22 -8 -21 -2 3 38 94 154 -66
355 -235 296z m122 -29 c136 -51 151 -254 23 -319 -147 -75 -307 68 -245 218
39 92 133 135 222 101z m162 -373 c22 -23 29 -36 21 -41 -13 -8 -82 53 -74 67
9 14 19 9 53 -26z"/>
</g>
</svg>
